{
	"asset":{
		"generator":"Khronos glTF Blender I/O v4.3.47",
		"version":"2.0"
	},
	"scene":0,
	"scenes":[
		{
			"name":"Scene",
			"nodes":[
				3
			]
		}
	],
	"nodes":[
		{
			"name":"button bone",
			"rotation":[
				1.4103716239333153e-07,
				0,
				0,
				1
			],
			"translation":[
				0,
				5.960464477539063e-08,
				0
			]
		},
		{
			"mesh":0,
			"name":"0936_Button",
			"skin":0
		},
		{
			"mesh":1,
			"name":"0936_Button.001",
			"skin":0
		},
		{
			"children":[
				1,
				2,
				0
			],
			"name":"Esqueleto.001",
			"rotation":[
				-0.9999993443489075,
				0,
				0,
				0.0012325802817940712
			],
			"scale":[
				0.036307260394096375,
				0.036307260394096375,
				0.036307260394096375
			],
			"translation":[
				0.002536788582801819,
				0.029585279524326324,
				0
			]
		}
	],
	"materials":[
		{
			"alphaMode":"BLEND",
			"doubleSided":true,
			"name":"Material.010",
			"pbrMetallicRoughness":{
				"baseColorTexture":{
					"index":0
				},
				"metallicFactor":0,
				"roughnessFactor":0.5
			}
		},
		{
			"alphaMode":"BLEND",
			"doubleSided":true,
			"name":"Material.011",
			"pbrMetallicRoughness":{
				"baseColorTexture":{
					"index":1
				},
				"metallicFactor":0,
				"roughnessFactor":0.5
			}
		}
	],
	"meshes":[
		{
			"name":"0936_Button_mesh0936.006",
			"primitives":[
				{
					"attributes":{
						"POSITION":0,
						"NORMAL":1,
						"TEXCOORD_0":2,
						"TEXCOORD_1":3,
						"COLOR_0":4,
						"COLOR_1":5,
						"JOINTS_0":6,
						"WEIGHTS_0":7
					},
					"indices":8,
					"material":0
				}
			]
		},
		{
			"name":"0936_Button_mesh0936.007",
			"primitives":[
				{
					"attributes":{
						"POSITION":10,
						"NORMAL":11,
						"TEXCOORD_0":12,
						"TEXCOORD_1":13,
						"COLOR_0":14,
						"COLOR_1":15,
						"JOINTS_0":16,
						"WEIGHTS_0":17
					},
					"indices":18,
					"material":1
				}
			]
		}
	],
	"textures":[
		{
			"sampler":0,
			"source":0
		},
		{
			"sampler":0,
			"source":0
		}
	],
	"images":[
		{
			"mimeType":"image/png",
			"name":"button",
			"uri":"button.png"
		}
	],
	"skins":[
		{
			"inverseBindMatrices":9,
			"joints":[
				0
			],
			"name":"Esqueleto.001"
		}
	],
	"accessors":[
		{
			"bufferView":0,
			"componentType":5126,
			"count":391,
			"max":[
				0.035539980977773666,
				0.020406657829880714,
				0.03621513769030571
			],
			"min":[
				-0.03128378093242645,
				-0.005461154971271753,
				-0.030608829110860825
			],
			"type":"VEC3"
		},
		{
			"bufferView":1,
			"componentType":5126,
			"count":391,
			"type":"VEC3"
		},
		{
			"bufferView":2,
			"componentType":5126,
			"count":391,
			"type":"VEC2"
		},
		{
			"bufferView":3,
			"componentType":5126,
			"count":391,
			"type":"VEC2"
		},
		{
			"bufferView":4,
			"componentType":5121,
			"count":391,
			"normalized":true,
			"type":"VEC4"
		},
		{
			"bufferView":5,
			"componentType":5123,
			"count":391,
			"normalized":true,
			"type":"VEC4"
		},
		{
			"bufferView":6,
			"componentType":5121,
			"count":391,
			"type":"VEC4"
		},
		{
			"bufferView":7,
			"componentType":5126,
			"count":391,
			"type":"VEC4"
		},
		{
			"bufferView":8,
			"componentType":5123,
			"count":1101,
			"type":"SCALAR"
		},
		{
			"bufferView":9,
			"componentType":5126,
			"count":1,
			"type":"MAT4"
		},
		{
			"bufferView":10,
			"componentType":5126,
			"count":121,
			"max":[
				0.02779274992644787,
				0.032769329845905304,
				0.0284680537879467
			],
			"min":[
				-0.023536553606390953,
				0.01925327070057392,
				-0.022861752659082413
			],
			"type":"VEC3"
		},
		{
			"bufferView":11,
			"componentType":5126,
			"count":121,
			"type":"VEC3"
		},
		{
			"bufferView":12,
			"componentType":5126,
			"count":121,
			"type":"VEC2"
		},
		{
			"bufferView":13,
			"componentType":5126,
			"count":121,
			"type":"VEC2"
		},
		{
			"bufferView":14,
			"componentType":5121,
			"count":121,
			"normalized":true,
			"type":"VEC4"
		},
		{
			"bufferView":15,
			"componentType":5123,
			"count":121,
			"normalized":true,
			"type":"VEC4"
		},
		{
			"bufferView":16,
			"componentType":5121,
			"count":121,
			"type":"VEC4"
		},
		{
			"bufferView":17,
			"componentType":5126,
			"count":121,
			"type":"VEC4"
		},
		{
			"bufferView":18,
			"componentType":5123,
			"count":648,
			"type":"SCALAR"
		}
	],
	"bufferViews":[
		{
			"buffer":0,
			"byteLength":4692,
			"byteOffset":0,
			"target":34962
		},
		{
			"buffer":0,
			"byteLength":4692,
			"byteOffset":4692,
			"target":34962
		},
		{
			"buffer":0,
			"byteLength":3128,
			"byteOffset":9384,
			"target":34962
		},
		{
			"buffer":0,
			"byteLength":3128,
			"byteOffset":12512,
			"target":34962
		},
		{
			"buffer":0,
			"byteLength":1564,
			"byteOffset":15640,
			"target":34962
		},
		{
			"buffer":0,
			"byteLength":3128,
			"byteOffset":17204,
			"target":34962
		},
		{
			"buffer":0,
			"byteLength":1564,
			"byteOffset":20332,
			"target":34962
		},
		{
			"buffer":0,
			"byteLength":6256,
			"byteOffset":21896,
			"target":34962
		},
		{
			"buffer":0,
			"byteLength":2202,
			"byteOffset":28152,
			"target":34963
		},
		{
			"buffer":0,
			"byteLength":64,
			"byteOffset":30356
		},
		{
			"buffer":0,
			"byteLength":1452,
			"byteOffset":30420,
			"target":34962
		},
		{
			"buffer":0,
			"byteLength":1452,
			"byteOffset":31872,
			"target":34962
		},
		{
			"buffer":0,
			"byteLength":968,
			"byteOffset":33324,
			"target":34962
		},
		{
			"buffer":0,
			"byteLength":968,
			"byteOffset":34292,
			"target":34962
		},
		{
			"buffer":0,
			"byteLength":484,
			"byteOffset":35260,
			"target":34962
		},
		{
			"buffer":0,
			"byteLength":968,
			"byteOffset":35744,
			"target":34962
		},
		{
			"buffer":0,
			"byteLength":484,
			"byteOffset":36712,
			"target":34962
		},
		{
			"buffer":0,
			"byteLength":1936,
			"byteOffset":37196,
			"target":34962
		},
		{
			"buffer":0,
			"byteLength":1296,
			"byteOffset":39132,
			"target":34963
		}
	],
	"samplers":[
		{
			"magFilter":9729,
			"minFilter":9987
		}
	],
	"buffers":[
		{
			"byteLength":40428,
			"uri":"button.bin"
		}
	]
}
